<?xml version="1.0" encoding="UTF-8"?>
<!DOCTYPE svg PUBLIC "-//W3C//DTD SVG 1.1//EN" "http://www.w3.org/Graphics/SVG/1.1/DTD/svg11.dtd">
<!-- Creator: CorelDRAW Standard 2024 (Versión de evaluación) -->
<svg xmlns="http://www.w3.org/2000/svg" xml:space="preserve" width="420px" height="272px" version="1.1" style="shape-rendering:geometricPrecision; text-rendering:geometricPrecision; image-rendering:optimizeQuality; fill-rule:evenodd; clip-rule:evenodd"
viewBox="0 0 420 272"
 xmlns:xlink="http://www.w3.org/1999/xlink"
 xmlns:xodm="http://www.corel.com/coreldraw/odm/2003">
 <defs>
  <style type="text/css">
   <![CDATA[
    .fil0 {fill:#01AEEE}
    .fil4 {fill:#01B1ED}
    .fil8 {fill:#03B2EB}
    .fil17 {fill:#081826}
    .fil14 {fill:#0BADEB}
    .fil9 {fill:#0CACE3}
    .fil11 {fill:#13ADE3}
    .fil13 {fill:#141419}
    .fil1 {fill:#1B141A}
    .fil18 {fill:#C8282A}
    .fil7 {fill:#D9262A}
    .fil16 {fill:#E81A27}
    .fil6 {fill:#ED1B23}
    .fil15 {fill:#EED610}
    .fil2 {fill:#F3151B}
    .fil3 {fill:#F91A21}
    .fil5 {fill:#F9D804}
    .fil12 {fill:#FAE208}
    .fil10 {fill:#FEDC0B}
   ]]>
  </style>
 </defs>
 <g id="Capa_x0020_1">
  <metadata id="CorelCorpID_0Corel-Layer"/>
  <g id="_1929912178560">
   <path class="fil0" d="M223.168 141.863c4.698,-1.601 5.227,-2.129 7.582,-5.24l-9.085 -0.067 1.503 5.307z"/>
   <path class="fil1" d="M52.556 211.302l0.36 0.359c-0.024,-0.023 -0.48,-0.239 -0.36,-0.359zm8.432 -31.325c5.48,0 8.16,0.661 12.046,-1.205l0 12.049c-1.831,-1.227 -10.963,-9.227 -12.046,-10.844zm11.99 -18.38l0.154 12.358 -13.983 0.929c0.942,-5.893 7.734,-12.733 13.829,-13.287zm213.611 1.916c2.831,1.407 34.423,24.662 35.459,26.785l-17.254 0.995c0.705,9.053 14.466,28.811 15.713,40.638 -11.324,-1.49 -50.682,-19.091 -60.534,-19.442l1.179 27.222c-10.833,-2.643 -26.206,-12.704 -35.491,-13.181 -2.309,4.395 -15.923,26.64 -18.917,28.885 -6.451,-5.826 -18.221,-27.781 -25.296,-33.195 -8.595,3.836 -35.178,21.079 -42.161,22.995 -1.37,-2.058 0.059,1.906 -1.369,-2.502 -0.05,-0.153 -0.6,-2.797 -0.608,-2.849 -0.388,-2.472 -0.486,-5.247 -0.838,-7.804 -0.628,-4.55 -1.402,-9.951 -2.447,-14.29l-76.708 26.665c1.087,-5.135 6.427,-11.537 9.602,-16.392 3.308,-5.058 1.731,-2.373 7.443,-4.581 3.728,-1.439 4.746,-3.166 8.309,-4.985 6.684,0.296 9.89,1.284 16.688,-0.307 3.956,-5.836 3.512,-12.7 3.876,-21.326l5.925 -2.878c4.62,5.683 4.323,12.015 9.71,18.185 9.404,0.501 13.664,-3.735 19.212,-8.814 27.733,2.963 40.333,-28.01 44.57,-31.938 7.703,3.675 30.662,21.209 47.232,-4.438 4.475,-6.924 2.409,-8.618 12.911,-9.8l-2.779 42.06c5.411,-1.833 19.043,-24.369 22.266,-28.635 3.905,1.536 11.671,8.411 15.731,11.609 3.672,2.892 10.993,9.858 16.533,11.054 -1.48,-8.236 -8.186,-23.51 -7.957,-29.736zm-209.543 -25.688c5.058,-3.636 21.798,-8.617 28.748,-8.469l29.576 68.694c-2.318,4.404 -7.507,8.093 -14.582,8.805l-7.675 -18.553c-5.964,-0.056 -10.47,2.286 -15.564,4.053l-0.929 21.353 -11.267 -0.125 0.964 -7.294 -7.116 -6.699 -2.155 -61.765zm236.129 18.279c5.232,1.14 41.359,31.202 42.205,32.853l-26.967 1.178c-3.716,-4.94 -14.577,-28.302 -15.238,-34.031zm-108.199 3.82l15.277 -12.205c24.954,-18.335 10.3,-9.686 46.591,-3.695 14.847,2.45 21.037,0.272 33.858,-2.438l17.951 39.385c-9.387,-5.701 -34.961,-26.732 -39.409,-28.483l9.484 32.145 -20.062 -15.937c-2.3,-2.068 -4.314,-3.724 -8.277,-5.122l-12.512 20.145c-2.706,3.26 -0.945,1.107 -2.95,2.625l1.986 -34.834c-13.46,3.19 -27.15,7.458 -41.937,8.414zm-153.688 17.643c4.625,5.975 29.994,26.145 30.568,28.916 -0.79,6.378 -6.468,10.698 -11.231,13 -5.07,-1.821 -24.793,-20.12 -25.932,-21.886 -0.371,7.353 5.596,16.354 5.238,24.293 -5.385,2.057 -12.601,5.429 -18.595,5.754 -3.103,-6.787 -19.857,-69.57 -19.714,-76.583 5.208,-2.955 14.107,-4.522 20.585,-4.813l4.85 18.005c4.375,-4.053 8.108,-16.357 10.816,-22.682 6.983,0.422 12.113,3.353 16.697,5.811 -0.44,9.983 -10.867,20.276 -13.282,30.185zm325.741 -38.738c13.833,-3.518 16.176,13.483 2.973,15.585 -13.92,2.217 -19.903,-11.281 -2.973,-15.585zm-57.087 -5.433l-0.143 16.646 -10.336 0.692c-1.646,-4.102 -3.599,-6.81 -3.975,-11.575l14.454 -5.763zm-98.277 3.16l9.085 0.067c-2.355,3.111 -2.884,3.639 -7.582,5.24l-1.503 -5.307zm-65.775 9.768l12.537 0.572c9.872,15.187 9.452,19.164 3.271,31.75 -4.438,6.093 -17.908,20.406 -28.798,19.413 -4.993,-6.496 -29.946,-61.903 -30.274,-69.89 10.093,-9.719 52.08,-39.003 51.904,-3.594 -0.054,10.86 -4.802,14.676 -8.64,21.749zm106.07 -5.724c-13.542,-2.47 -40.675,-9.161 -28.715,-23.447 7.99,0.659 17.874,12.926 50.625,12.054 6.616,-0.176 12.181,-2.875 17.751,-2.23 8.269,19.362 -27.233,15.89 -39.661,13.623zm-56.42 11.899c-4.724,-3.278 -7.757,-9.26 -8.569,-17.04 -2.35,-22.528 11.495,-23.472 17.729,-12.11 -4.99,4.232 -15.807,6.959 -12.459,11.764 3.897,5.593 9.267,2.113 13.679,2.954 1.556,1.049 2.49,1.825 3.101,5.765 -2.592,3.007 -8.96,7.475 -13.481,8.667zm113.842 -22.59l-13.401 6.119c-0.016,-9.511 -3.188,-9.859 -5.21,-17.238 6.913,1.105 13.993,6.648 20.672,9.205 -0.854,0.884 -0.745,0.977 -2.061,1.914zm-111.011 2.588c4.216,-3.202 13.95,-10.852 19.389,-12.361 -2.751,7.121 1.783,8.83 4.196,13.514l-23.585 -1.153zm42.89 -15.288c26.424,9.939 41.851,0.924 47.378,4.969 1.552,9.136 -35.044,5.686 -50.451,-0.411 -12.862,-5.091 -11.416,-4.98 -10.765,-8.855 5.157,-1.427 9.041,2.493 13.838,4.297zm-23.609 42.861c-3.501,11.191 -17.207,19.02 -32.025,12.902 -21.999,-9.084 -30.774,-46.81 -20.893,-67.167 4.563,-9.403 15.732,-18.319 29.601,-18.396 9.552,7.527 17.742,19.264 26.023,27.245 -3.333,2.348 -6.829,3.937 -11.692,5.352 -5.582,-10.163 -21.893,-14.429 -25.805,1.315 -1.523,6.132 -0.956,15.801 0.816,21.18 2.535,11.469 9.285,10.448 10.469,14.456 -1.593,3.462 -6.604,3.335 -8.371,6.907l31.877 -3.794zm63.452 -40.124c-11.698,1.543 -44.228,0.11 -50.53,-11.374 3.27,-1.264 0.378,-3.181 5.575,-0.745 8.963,4.201 7.876,4.286 19.701,6.789 20.244,4.287 25.46,-2.488 31.137,1.231 -0.987,3.513 0.017,3.321 -5.883,4.099zm-24.984 -6.552c-7.566,-1.551 -17.548,-3.68 -21.484,-8.979 2.594,-4.072 8.858,1.832 22.176,4.418 7.038,1.367 23.009,-0.363 26.693,1.264 -0.64,3 2.481,2.829 -4.773,3.899l-22.612 -0.602zm24.901 -5.883c-9.926,1.842 -28.571,0.551 -37.827,-4.024 -1.795,-0.887 -1.381,-0.802 -2.364,-1.537l-1.388 -1.491c3.383,-8.446 15.603,-6.715 23.787,-5.105 9.297,1.829 17.042,2.367 17.792,12.157zm71.775 -31.737c2.18,11.33 2.726,27.445 3.873,39.191 1.584,16.225 5.651,19.071 -5.207,33.017l-5.403 0.442c-1.666,-3.641 -10.28,-45.338 -10.41,-48.518l-4.183 52.403 -8.649 0.164 -11.386 -58.553 -1.531 29.747c-4.088,-0.861 -12.191,-5.153 -15.612,-7.766l21.274 -39.056c1.8,5.125 7.636,35.118 8.305,39.907l3.352 -39.188 25.577 -1.79zm-112.029 -10.749l8.21 13.346c2.116,4.062 4.881,8.844 6.531,13.424 -9.26,-0.015 -9.393,0.664 -16.878,2.881l2.137 -29.651zm-44.645 19.051c4.479,0.149 35.782,11.746 39.985,14.019 -1.72,2.42 -4.159,5.417 -6.325,7.731 -3.321,3.55 -3.167,4.842 -6.537,6.679l-27.123 -28.429zm86.228 16.383c3.825,-3.601 21.488,-15.584 26.084,-17.471l-17.612 33.181c-3.287,-2.774 -7.54,-11.548 -8.472,-15.71zm-19.31 -7.423c1.211,-5.083 7.876,-14.848 11.377,-20.891l2.851 -4.56 -0.103 28.357 -14.125 -2.906zm100.83 29.494c-2.308,-9.317 6.914,-41.842 10.279,-50.609 7.675,0.07 17.496,2.817 22.548,6.85 -1.088,3.936 -3.892,7.408 -5.798,11.037 -6.686,12.73 -9.605,20.413 -13.361,35.076l-13.668 -2.354zm-52.303 -47.529c-2.548,4.581 -17.471,14.11 -22.693,16.189l0.706 -12.423 21.987 -3.766zm-30.413 21.736c-1.826,-28.188 1.773,-22.759 21.838,-27.173 10.066,-2.215 31.498,-8.598 40.703,-8.496l-5.587 11.617c-19.918,2.059 -10.003,0.649 -16.086,11.998 -2.62,-4.201 -1.96,-8.406 -4.736,-13.025 -5.755,-0.922 -18.519,1.678 -24.531,3.058 -1.127,0.259 -2.925,0.649 -3.907,1.1 -7.721,3.546 1.88,16.554 -7.694,20.921zm-36.243 -36.037c3.544,-3.369 26.777,-15.036 32.572,-16.759 -1.025,16.312 -8.151,35.647 -18.1,46.365 -3.066,-2.551 -13.677,-24.502 -14.472,-29.606zm-89.123 -6.979c5.986,-8.062 6.01,-26.19 12.046,-34.756 6.226,5.029 19.687,30.779 27.706,37.213 8.335,-4.135 18.027,-19.793 26.501,-24.241 4.584,6.724 9.68,18.107 13.716,25.877 3.462,6.665 0.156,25.372 -0.68,34.251 -11.452,-0.277 -31.873,-11.569 -44.356,-13.359 -0.113,0.22 -0.224,0.573 -0.255,0.697 -1.171,4.713 1.648,2.511 -1.722,4.318 -1.327,0.713 -5.275,0.987 -7.205,1.546 -17.383,5.041 -19.915,18.629 -24.547,25.446 -10.11,-11.465 -17.128,-9.666 -32.333,-2.921 -11.68,5.183 -18.582,11.601 -26.692,17.569 -10.373,-2.307 -22.555,4.066 -32.089,6.933 -4.358,1.31 -26.448,-8.139 -28.515,-11.354 8.1,-4.734 50.625,-7.898 63.962,-11.213l-30.57 -32.087 48.561 -2.767c-0.696,-4.891 -6.038,-17.887 -7.922,-23.896 -1.824,-5.812 -6.447,-18.991 -7.024,-25.049 4.922,1.093 20.16,10.745 25.476,13.701 6.076,3.376 20.092,12.891 25.942,14.092zm-2.409 -7.479c-11.781,-2.746 -44.912,-28.319 -57.821,-31.327 0.828,9.957 8.174,31.27 11.589,41.422 1.522,4.524 3.686,9.369 4.071,14 -2.045,-0.534 -5.174,-0.019 -12.046,0 -12.94,1.023 -26.996,2.41 -39.752,2.41 2.88,10.786 26.432,24.451 28.911,33.735 -7.613,0 -12.037,1.284 -18.203,2.277 -17.921,2.884 -37.991,5.744 -55.277,9.772 2.397,3.273 5.821,3.737 10.379,5.281 12.235,4.148 24.191,11.105 36.6,13.995l0 16.869 -4.633 3.82c1.636,-9.095 5.275,-12.941 -5.385,-17.898 -4.734,-2.201 -10.734,-3.995 -16.483,-3.995 -2.307,3.444 -6.023,10.105 -6.023,15.663l-1.205 0c0,-5.762 -1.364,-7.484 -3.614,-10.844 -8.966,0 -18.584,2.975 -26.501,4.82 -1.407,6.042 -0.568,11.436 0.979,17.093 3.59,13.123 12.521,55.366 16.983,64.942 2.342,5.022 5.674,4.912 9.98,3.835 6.119,-1.531 13.93,-4.136 19.037,-7.556l-1.204 -10.844c6.04,3.198 6.038,5.217 10.841,8.433l-16.365 23.392c-2.443,3.573 -4.26,4.598 -5.318,9.139 9.452,-2.203 76.119,-25.028 86.731,-30.12 0.094,4.21 1.627,11.217 2.135,14.731 0.755,5.211 1.479,10.413 1.479,15.389 4.653,-1.084 8.094,-3.716 12.083,-5.986l17.24 -9.264c2.975,-1.643 2.848,-1.98 5.998,-3.64 3.41,-1.796 9.964,-5.637 12.863,-6.412 1.735,6.499 14.743,21.299 19.249,27.736 1.313,1.876 5.597,7.198 7.251,8.409 1.842,-2.75 3.249,-4.845 5.31,-7.943 2.131,-3.205 2.903,-5.016 5.043,-8.209l10.126 -16.378c7.857,1.831 12.769,5.212 19.738,7.969 4.066,1.609 5.76,1.739 9.594,3.657 4.185,2.092 5.605,2.915 10.42,4.036 0,-6.106 -1.229,-6.584 -1.237,-13.22 -0.006,-5.228 0.032,-10.465 0.032,-15.695 8.327,1.94 14.994,5.63 23.362,7.959 10.438,2.905 31.544,9.439 40.481,13.727 -0.452,-5.431 -6.512,-17.135 -8.815,-22.508 -3.474,-8.108 -7.192,-14.423 -9.253,-23.274 18.376,0 37.511,-2.409 55.411,-2.409 -1.411,-2.109 -2.421,-3.361 -4.593,-5.046l-34.67 -27.974c-3.655,-2.792 -2.028,-3.134 -6.512,-4.331 3.156,-5.965 2.41,-5.771 2.41,-14.458l1.204 0c0,7.054 1.991,11.441 4.818,15.663 14.98,0 16.865,3.553 16.865,-18.072l1.204 0c0,5.716 1.349,8.702 2.409,13.253 4.82,1.123 5.88,2.381 10.842,0 1.817,2.714 2.034,3.246 4.964,4.673 19.247,9.368 37.924,-10.554 21.123,-21.128 -5.587,-3.515 -8.021,-1.752 -14.041,-1.618l0 -8.433c5.399,2.591 12.198,3.778 18.069,2.409 0.259,-11.65 8.763,-28.705 14.471,-38.537 2.957,-5.094 4.361,-5.001 6.007,-12.066l-4.773 -3.66c-1.598,-0.764 -4.299,-1.713 -6.048,-2.384 -6.053,-2.324 -13.698,-3.594 -20.499,-3.594 -4.372,8.75 -6.29,25.052 -9.637,32.531 -0.14,0.314 -0.519,1.278 -0.693,0.971l-0.531 -0.93c-0.68,-1.195 -0.824,-2.169 -1.19,-7.265 -0.676,-11.859 -0.56,-14.648 -4.813,-22.898 -5.22,0 -5.924,-0.577 -9.637,1.205 1.702,-7.305 6.627,-10.32 8.432,-18.071 -18.544,1.542 -54.229,14.457 -69.866,14.457 -4.887,-0.485 -2.417,-11.901 -0.913,-18.957 0.623,-2.925 1.829,-11.31 2.117,-14.778 -10.686,2.491 -35.274,19.52 -44.57,21.687 -2.47,-10.604 -12.925,-22.291 -15.659,-32.531 -10.686,2.854 -20.095,19.397 -28.91,25.302l-14.662 -21.482c-4.687,-6.209 -9.042,-16.393 -15.453,-20.688 -3.124,13.413 -8.917,26.326 -12.046,39.761z"/>
   <path class="fil2" d="M286.589 163.513c-0.229,6.226 6.477,21.5 7.957,29.736 -5.54,-1.196 -12.861,-8.162 -16.533,-11.054 -4.06,-3.198 -11.826,-10.073 -15.731,-11.609 -3.223,4.266 -16.855,26.802 -22.266,28.635l2.779 -42.06c-10.502,1.182 -8.436,2.876 -12.911,9.8 -16.57,25.647 -39.529,8.113 -47.232,4.438 -4.237,3.928 -16.837,34.901 -44.57,31.938 -5.548,5.079 -9.808,9.315 -19.212,8.814 -5.387,-6.17 -5.09,-12.502 -9.71,-18.185l-5.925 2.878c-0.364,8.626 0.08,15.49 -3.876,21.326 -6.798,1.591 -10.004,0.603 -16.688,0.307 -3.563,1.819 -4.581,3.546 -8.309,4.985 -5.712,2.208 -4.135,-0.477 -7.443,4.581 -3.175,4.855 -8.515,11.257 -9.602,16.392l76.708 -26.665c1.045,4.339 1.819,9.74 2.447,14.29 0.352,2.557 0.45,5.332 0.838,7.804 0.008,0.052 0.558,2.696 0.608,2.849 1.428,4.408 -0.001,0.444 1.369,2.502 6.983,-1.916 33.566,-19.159 42.161,-22.995 7.075,5.414 18.845,27.369 25.296,33.195 2.994,-2.245 16.608,-24.49 18.917,-28.885 9.285,0.477 24.658,10.538 35.491,13.181l-1.179 -27.222c9.852,0.351 49.21,17.952 60.534,19.442 -1.247,-11.827 -15.008,-31.585 -15.713,-40.638l17.254 -0.995c-1.036,-2.123 -32.628,-25.378 -35.459,-26.785z"/>
   <path class="fil3" d="M165.788 53.721c-5.85,-1.201 -19.866,-10.716 -25.942,-14.092 -5.316,-2.956 -20.554,-12.608 -25.476,-13.701 0.577,6.058 5.2,19.237 7.024,25.049 1.884,6.009 7.226,19.005 7.922,23.896l-48.561 2.767 30.57 32.087c-13.337,3.315 -55.862,6.479 -63.962,11.213 2.067,3.215 24.157,12.664 28.515,11.354 9.534,-2.867 21.716,-9.24 32.089,-6.933 8.11,-5.968 15.012,-12.386 26.692,-17.569 15.205,-6.745 22.223,-8.544 32.333,2.921 4.632,-6.817 7.164,-20.405 24.547,-25.446 1.93,-0.559 5.878,-0.833 7.205,-1.546 3.37,-1.807 0.551,0.395 1.722,-4.318 0.031,-0.124 0.142,-0.477 0.255,-0.697 12.483,1.79 32.904,13.082 44.356,13.359 0.836,-8.879 4.142,-27.586 0.68,-34.251 -4.036,-7.77 -9.132,-19.153 -13.716,-25.877 -8.474,4.448 -18.166,20.106 -26.501,24.241 -8.019,-6.434 -21.48,-32.184 -27.706,-37.213 -6.036,8.566 -6.06,26.694 -12.046,34.756z"/>
   <path class="fil4" d="M51.288 177.567c2.415,-9.909 12.842,-20.202 13.282,-30.185 -4.584,-2.458 -9.714,-5.389 -16.697,-5.811 -2.708,6.325 -6.441,18.629 -10.816,22.682l-4.85 -18.005c-6.478,0.291 -15.377,1.858 -20.585,4.813 -0.143,7.013 16.611,69.796 19.714,76.583 5.994,-0.325 13.21,-3.697 18.595,-5.754 0.358,-7.939 -5.609,-16.94 -5.238,-24.293 1.139,1.766 20.862,20.065 25.932,21.886 4.763,-2.302 10.441,-6.622 11.231,-13 -0.574,-2.771 -25.943,-22.941 -30.568,-28.916z"/>
   <path class="fil0" d="M147.927 159.625c20.583,-15.014 23.716,4.264 4.882,16.222 -2.384,-3.659 -4.871,-10.879 -4.882,-16.222zm-14.467 -25.465c3.676,-1.929 15.441,-10.58 16.649,-1.108 0.962,7.544 -4.923,14.316 -9.617,16.627 -3.626,-3.258 -5.481,-10.017 -7.032,-15.519zm22.951 11.817c3.838,-7.073 8.065,-10.542 8.119,-21.402 0.176,-35.409 -41.811,-6.125 -51.904,3.594 0.328,7.987 25.281,63.394 30.274,69.89 10.89,0.993 24.36,-13.32 28.798,-19.413 10.903,-14.976 1.467,-35.246 -9.13,-34.041l-6.157 1.372z"/>
   <path class="fil0" d="M97.597 155.157c2.531,4.81 7.132,11.783 8.074,18.01l-9.796 3.006 1.722 -21.016zm-18.396 44.433l7.116 6.699 -0.964 7.294 11.267 0.125 0.929 -21.353c5.094,-1.767 9.6,-4.109 15.564,-4.053l7.675 18.553c7.075,-0.712 12.264,-4.401 14.582,-8.805l-29.576 -68.694c-6.95,-0.148 -23.69,4.833 -28.748,8.469l2.155 61.765z"/>
   <path class="fil0" d="M337.219 77.564l-3.352 39.188c-0.669,-4.789 -6.505,-34.782 -8.305,-39.907l-21.274 39.056c3.421,2.613 11.524,6.905 15.612,7.766l1.531 -29.747 11.386 58.553 8.649 -0.164 4.183 -52.403c0.13,3.18 8.744,44.877 10.41,48.518l5.403 -0.442c10.858,-13.946 6.791,-16.792 5.207,-33.017 -1.147,-11.746 -1.693,-27.861 -3.873,-39.191l-25.577 1.79z"/>
   <path class="fil0" d="M227.652 160.07l-31.877 3.794c1.767,-3.572 7.091,-3.068 9.598,-7.521 -5.768,-3.633 -9.417,-6.925 -11.696,-13.842 -1.772,-5.379 -2.339,-15.048 -0.816,-21.18 3.912,-15.744 20.076,-8.967 23.686,-2.226 2.392,4.464 10.478,-2.093 13.811,-4.441 -8.281,-7.981 -16.471,-19.718 -26.023,-27.245 -13.869,0.077 -25.038,8.993 -29.601,18.396 -9.881,20.357 -1.106,58.083 20.893,67.167 14.818,6.118 28.524,-1.711 32.025,-12.902z"/>
   <path class="fil5" d="M204.976 159.924c14.787,-0.956 28.477,-5.224 41.937,-8.414l-1.986 34.834c2.005,-1.518 0.244,0.635 2.95,-2.625l12.512 -20.145c3.963,1.398 5.977,3.054 8.277,5.122l20.062 15.937 -9.484 -32.145c4.448,1.751 30.022,22.782 39.409,28.483l-17.951 -39.385c-12.821,2.71 -19.011,4.888 -33.858,2.438 -36.291,-5.991 -21.637,-14.64 -46.591,3.695l-15.277 12.205z"/>
   <path class="fil4" d="M373.87 122.53l13.668 2.354c3.756,-14.663 6.675,-22.346 13.361,-35.076 1.906,-3.629 4.71,-7.101 5.798,-11.037 -5.052,-4.033 -14.873,-6.78 -22.548,-6.85 -3.365,8.767 -12.587,41.292 -10.279,50.609z"/>
   <path class="fil0" d="M301.621 126.977c-5.57,-0.645 -11.135,2.054 -17.751,2.23 -32.751,0.872 -42.635,-11.395 -50.625,-12.054 -11.96,14.286 15.173,20.977 28.715,23.447 12.428,2.267 47.93,5.739 39.661,-13.623z"/>
   <path class="fil3" d="M254.911 60.7c0.795,5.104 11.406,27.055 14.472,29.606 9.949,-10.718 17.075,-30.053 18.1,-46.365 -5.795,1.723 -29.028,13.39 -32.572,16.759z"/>
   <path class="fil6" d="M355.38 188.957c-0.846,-1.651 -36.973,-31.713 -42.205,-32.853 0.661,5.729 11.522,29.091 15.238,34.031l26.967 -1.178z"/>
   <path class="fil7" d="M291.154 96.737c9.574,-4.367 -0.027,-17.375 7.694,-20.921 0.982,-0.451 2.78,-0.841 3.907,-1.1 6.012,-1.38 18.776,-3.98 24.531,-3.058 2.776,4.619 2.116,8.824 4.736,13.025 6.083,-11.349 -3.832,-9.939 16.086,-11.998l5.587 -11.617c-9.205,-0.102 -30.637,6.281 -40.703,8.496 -20.065,4.414 -23.664,-1.015 -21.838,27.173z"/>
   <path class="fil6" d="M205.54 152.499c4.56,1.028 12.815,-4.754 13.481,-8.667 2.161,-12.687 -12.174,-4.944 -15.336,-9.201 -2.513,-3.382 10.765,-5.752 11.015,-11.282 0.373,-8.225 -9.31,-10.626 -15.154,-6.344 -4.22,3.092 -4.857,9.395 -3.399,18.572 0.812,7.779 3.785,15.657 9.393,16.922z"/>
   <path class="fil8" d="M249.442 100.459l1.388 1.491c0.983,0.735 0.569,0.65 2.364,1.537 9.256,4.575 27.901,5.866 37.827,4.024 -0.75,-9.79 -8.495,-10.328 -17.792,-12.157 -8.184,-1.61 -20.404,-3.341 -23.787,5.105z"/>
   <path class="fil5" d="M233.245 112.505c3.37,-1.837 3.216,-3.129 6.537,-6.679 2.166,-2.314 4.605,-5.311 6.325,-7.731 -4.203,-2.273 -35.506,-13.87 -39.985,-14.019l27.123 28.429z"/>
   <path class="fil9" d="M298.639 122.178c-5.527,-4.045 -20.954,4.97 -47.378,-4.969 -4.797,-1.804 -8.681,-5.724 -13.838,-4.297 -0.651,3.875 -2.097,3.764 10.765,8.855 15.407,6.097 52.003,9.547 50.451,0.411z"/>
   <path class="fil10" d="M292.35 100.459c0.932,4.162 5.185,12.936 8.472,15.71l17.612 -33.181c-4.596,1.887 -22.259,13.87 -26.084,17.471z"/>
   <path class="fil8" d="M377.029 138.829c-16.93,4.304 -10.947,17.802 2.973,15.585 13.203,-2.102 10.86,-19.103 -2.973,-15.585z"/>
   <path class="fil11" d="M240.574 108.572c6.302,11.484 38.832,12.917 50.53,11.374 5.9,-0.778 4.896,-0.586 5.883,-4.099 -5.677,-3.719 -10.893,3.056 -31.137,-1.231 -11.825,-2.503 -10.738,-2.588 -19.701,-6.789 -5.197,-2.436 -2.305,-0.519 -5.575,0.745z"/>
   <path class="fil12" d="M248.63 94.676c7.485,-2.217 7.618,-2.896 16.878,-2.881 -1.65,-4.58 -4.415,-9.362 -6.531,-13.424l-8.21 -13.346 -2.137 29.651z"/>
   <path class="fil11" d="M244.636 104.415c3.936,5.299 13.918,7.428 21.484,8.979l22.612 0.602c7.254,-1.07 4.133,-0.899 4.773,-3.899 -3.684,-1.627 -19.655,0.103 -26.693,-1.264 -13.318,-2.586 -19.582,-8.49 -22.176,-4.418z"/>
   <path class="fil12" d="M273.04 93.036l14.125 2.906 0.103 -28.357 -2.851 4.56c-3.501,6.043 -10.166,15.808 -11.377,20.891z"/>
   <path class="fil13" d="M151.082 163.109c2.773,-3.423 5.405,-6.958 8.247,-3.678 3.452,3.985 -1.47,6.962 -5.587,8.845 -2.684,-2.766 -1.802,-1.079 -2.66,-5.167zm-3.155 -3.484c-3.608,3.939 0.675,17.036 4.882,16.222 22.562,-4.367 13.421,-36.205 -4.882,-16.222z"/>
   <path class="fil13" d="M141.696 142.482c-5.368,-6.671 -3.618,-8.018 4.321,-8.936 -0.652,4.214 -0.578,6.943 -4.321,8.936zm-8.236 -8.322c-1.571,5.496 2.189,14.968 7.032,15.519 5.198,0.592 10.579,-9.083 9.617,-16.627 -1.208,-9.472 -15.508,-2.882 -16.649,1.108z"/>
   <path class="fil8" d="M305.488 139.159c0.376,4.765 2.329,7.473 3.975,11.575l10.336 -0.692 0.143 -16.646 -14.454 5.763z"/>
   <path class="fil14" d="M299.58 78.767l-0.706 12.423c5.222,-2.079 20.145,-11.608 22.693,-16.189l-21.987 3.766z"/>
   <path class="fil15" d="M305.981 136.028l13.401 -6.119c1.316,-0.937 1.207,-1.03 2.061,-1.914 -6.679,-2.557 -13.759,-8.1 -20.672,-9.205 2.022,7.379 5.194,7.727 5.21,17.238z"/>
   <path class="fil12" d="M208.371 132.497l23.585 1.153c-2.413,-4.684 -6.947,-6.393 -4.196,-13.514 -5.439,1.509 -15.173,9.159 -19.389,12.361z"/>
   <path class="fil16" d="M72.978 161.597c-6.095,0.554 -12.887,7.394 -13.829,13.287l13.983 -0.929 -0.154 -12.358z"/>
   <path class="fil17" d="M95.875 176.173c1.799,1.975 7.005,-1.134 9.796,-3.006 5.228,-3.508 -4.728,-22.563 -8.074,-18.01 -3.508,4.774 -6.985,15.238 -1.722,21.016z"/>
   <path class="fil7" d="M150.813 161.656c-1.03,4.046 -0.729,8.012 3.02,8.893 7.148,1.68 12.293,-8.473 7.129,-12.197 -2.453,-1.768 -9.063,-0.962 -10.149,3.304z"/>
   <path class="fil18" d="M140.46 145.44c3.482,1.793 9.982,-11.341 5.921,-13.167 -8.492,-3.819 -14.378,8.813 -5.921,13.167z"/>
   <path class="fil18" d="M98.357 172.772c1.514,1.102 5.254,-1.088 6.226,-3.78 1.056,-2.925 -1.033,-7.526 -2.906,-8.887 -6.008,-4.365 -7.043,9.956 -3.32,12.667z"/>
  </g>
 </g>
</svg>
